<?xml version="1.0" standalone="no"?>
<!DOCTYPE svg PUBLIC "-//W3C//DTD SVG 20010904//EN"
 "http://www.w3.org/TR/2001/REC-SVG-20010904/DTD/svg10.dtd">
<svg version="1.0" xmlns="http://www.w3.org/2000/svg"
 width="700.000000pt" height="700.000000pt" viewBox="0 0 700.000000 700.000000"
 preserveAspectRatio="xMidYMid meet">
<metadata>
Created by potrace 1.14, written by Peter Selinger 2001-2017
</metadata>
<g transform="translate(0.000000,700.000000) scale(0.100000,-0.100000)"
fill="#000000" stroke="none">
<path d="M3388 5639 l-2027 -1361 20 -40 c40 -79 60 -185 66 -348 26 -751
-450 -2035 -1359 -3664 -48 -87 -87 -161 -84 -163 2 -3 2095 2416 2270 2624
l28 33 -16 69 c-72 317 80 632 369 767 80 37 198 64 280 64 114 0 281 -50 364
-109 l28 -20 1388 1411 1388 1410 -344 344 -344 344 -2027 -1361z"/>
<path d="M5252 3965 c-1332 -1837 -1344 -1854 -1370 -1844 -156 59 -436 61
-718 4 -325 -66 -772 -247 -1114 -452 -58 -35 -385 -304 -1038 -852 -525 -441
-957 -801 -960 -801 -12 0 84 90 1333 1250 677 629 1253 1165 1281 1192 l51
50 68 -21 c88 -27 210 -28 294 -2 223 69 371 307 333 534 -41 239 -237 407
-475 407 -140 0 -239 -41 -340 -141 -144 -143 -184 -347 -105 -531 l20 -48
-105 -113 c-57 -61 -618 -661 -1246 -1332 l-1141 -1220 23 -23 23 -23 145 89
c1161 716 2168 1173 2944 1336 228 47 347 60 565 60 237 0 351 -18 474 -77
l71 -33 1360 2009 c748 1105 1363 2015 1367 2022 4 7 -72 89 -195 213 l-202
201 -1343 -1854z"/>
</g>
</svg>
