<?xml version="1.0" standalone="no"?>
<!DOCTYPE svg PUBLIC "-//W3C//DTD SVG 20010904//EN"
 "http://www.w3.org/TR/2001/REC-SVG-20010904/DTD/svg10.dtd">
<svg version="1.0" xmlns="http://www.w3.org/2000/svg"
 width="700.000000pt" height="700.000000pt" viewBox="0 0 700.000000 700.000000"
 preserveAspectRatio="xMidYMid meet">
<metadata>
Created by potrace 1.14, written by Peter Selinger 2001-2017
</metadata>
<g transform="translate(0.000000,700.000000) scale(0.100000,-0.100000)"
fill="#000000" stroke="none">
<path d="M3389 5638 l-2027 -1361 24 -47 c13 -26 31 -76 40 -111 22 -88 30
-358 15 -501 -83 -785 -554 -1969 -1353 -3396 -44 -79 -79 -145 -76 -147 2 -2
459 524 1015 1168 556 645 1070 1241 1143 1325 l132 152 -18 68 c-22 88 -23
236 0 322 65 248 247 428 497 492 156 39 366 8 494 -73 31 -20 54 -28 62 -23
10 7 2582 2622 2720 2765 l43 44 -343 342 -342 342 -2026 -1361z"/>
<path d="M5264 3978 c-730 -1008 -1334 -1841 -1344 -1851 -14 -16 -20 -16 -56
-4 -167 60 -492 52 -784 -18 -317 -76 -730 -252 -1049 -447 -60 -37 -1950
-1612 -1967 -1640 -15 -24 9 -14 92 38 443 279 946 559 1404 782 770 376 1413
589 1944 643 145 14 423 6 516 -15 82 -19 177 -52 208 -72 13 -8 27 -14 33
-12 5 2 623 910 1373 2018 l1365 2015 -197 198 c-108 108 -200 197 -203 197
-4 0 -604 -825 -1335 -1832z"/>
<path d="M2813 3415 c-273 -74 -421 -357 -329 -629 l27 -79 -29 -31 c-16 -17
-552 -591 -1192 -1276 -640 -685 -1188 -1271 -1218 -1302 -44 -45 -52 -59 -40
-63 12 -5 389 340 1353 1237 l1337 1244 66 -23 c247 -84 523 58 604 310 27 84
27 210 0 294 -77 241 -337 383 -579 318z"/>
</g>
</svg>
